%TF.GenerationSoftware,KiCad,Pcbnew,(6.0.4)*%
%TF.CreationDate,2022-05-31T22:59:13-07:00*%
%TF.ProjectId,VP_SPEAKER_ADAPTER,56505f53-5045-4414-9b45-525f41444150,rev?*%
%TF.SameCoordinates,Original*%
%TF.FileFunction,Copper,L2,Bot*%
%TF.FilePolarity,Positive*%
%FSLAX46Y46*%
G04 Gerber Fmt 4.6, Leading zero omitted, Abs format (unit mm)*
G04 Created by KiCad (PCBNEW (6.0.4)) date 2022-05-31 22:59:13*
%MOMM*%
%LPD*%
G01*
G04 APERTURE LIST*
G04 Aperture macros list*
%AMRoundRect*
0 Rectangle with rounded corners*
0 $1 Rounding radius*
0 $2 $3 $4 $5 $6 $7 $8 $9 X,Y pos of 4 corners*
0 Add a 4 corners polygon primitive as box body*
4,1,4,$2,$3,$4,$5,$6,$7,$8,$9,$2,$3,0*
0 Add four circle primitives for the rounded corners*
1,1,$1+$1,$2,$3*
1,1,$1+$1,$4,$5*
1,1,$1+$1,$6,$7*
1,1,$1+$1,$8,$9*
0 Add four rect primitives between the rounded corners*
20,1,$1+$1,$2,$3,$4,$5,0*
20,1,$1+$1,$4,$5,$6,$7,0*
20,1,$1+$1,$6,$7,$8,$9,0*
20,1,$1+$1,$8,$9,$2,$3,0*%
G04 Aperture macros list end*
%TA.AperFunction,SMDPad,CuDef*%
%ADD10C,4.000000*%
%TD*%
%TA.AperFunction,SMDPad,CuDef*%
%ADD11RoundRect,0.625000X1.625000X0.625000X-1.625000X0.625000X-1.625000X-0.625000X1.625000X-0.625000X0*%
%TD*%
%TA.AperFunction,SMDPad,CuDef*%
%ADD12RoundRect,0.200000X-0.321564X-0.110552X0.006097X-0.339982X0.321564X0.110552X-0.006097X0.339982X0*%
%TD*%
%TA.AperFunction,ViaPad*%
%ADD13C,0.800000*%
%TD*%
G04 APERTURE END LIST*
D10*
%TO.P,J7,1,Pin_1*%
%TO.N,GND*%
X165500000Y-92000000D03*
%TD*%
%TO.P,J9,1,Pin_1*%
%TO.N,/RIGHT-*%
X174500000Y-108000000D03*
%TD*%
D11*
%TO.P,J10,1,Pin_1*%
%TO.N,/RIGHT+*%
X180000000Y-100000000D03*
%TO.P,J10,2,Pin_2*%
%TO.N,/RIGHT-*%
X180000000Y-104000000D03*
%TD*%
D12*
%TO.P,R2,1*%
%TO.N,GND*%
X161424200Y-109826799D03*
%TO.P,R2,2*%
%TO.N,/RIGHT-*%
X162775800Y-110773201D03*
%TD*%
D10*
%TO.P,J6,1,Pin_1*%
%TO.N,/RIGHT+*%
X174500000Y-92000000D03*
%TD*%
D11*
%TO.P,J12,1,Pin_1*%
%TO.N,GND*%
X159500000Y-100000000D03*
%TD*%
D10*
%TO.P,J8,1,Pin_1*%
%TO.N,/RIGHT-*%
X165500000Y-108000000D03*
%TD*%
D13*
%TO.N,GND*%
X164500000Y-103000000D03*
X159500000Y-93500000D03*
%TD*%
%TA.AperFunction,Conductor*%
%TO.N,GND*%
G36*
X161925312Y-88667402D02*
G01*
X161973441Y-88719596D01*
X161986500Y-88775455D01*
X161986500Y-91874000D01*
X161998234Y-91983149D01*
X162009620Y-92035491D01*
X162044290Y-92139657D01*
X162123308Y-92262612D01*
X162169801Y-92316268D01*
X162173194Y-92319208D01*
X162273450Y-92406081D01*
X162273453Y-92406083D01*
X162280261Y-92411982D01*
X162413210Y-92472698D01*
X162436964Y-92479673D01*
X162477008Y-92491431D01*
X162477012Y-92491432D01*
X162481331Y-92492700D01*
X162485780Y-92493340D01*
X162485786Y-92493341D01*
X162621553Y-92512861D01*
X162621558Y-92512861D01*
X162626000Y-92513500D01*
X162868218Y-92513500D01*
X162871073Y-92513238D01*
X162871081Y-92513238D01*
X162927852Y-92508035D01*
X162997514Y-92521737D01*
X163048710Y-92570925D01*
X163063119Y-92609897D01*
X163065249Y-92621062D01*
X163067213Y-92628711D01*
X163162284Y-92921309D01*
X163165199Y-92928672D01*
X163296189Y-93207041D01*
X163300001Y-93213974D01*
X163394187Y-93362388D01*
X163404793Y-93371685D01*
X163414066Y-93367514D01*
X165410905Y-91370675D01*
X165473217Y-91336649D01*
X165544032Y-91341714D01*
X165589095Y-91370675D01*
X167583293Y-93364873D01*
X167595673Y-93371633D01*
X167603813Y-93365540D01*
X167699999Y-93213974D01*
X167703811Y-93207041D01*
X167834801Y-92928672D01*
X167837716Y-92921309D01*
X167932783Y-92628723D01*
X167934752Y-92621054D01*
X167937425Y-92607040D01*
X167969836Y-92543873D01*
X168031252Y-92508256D01*
X168079126Y-92505930D01*
X168127323Y-92512860D01*
X168127338Y-92512861D01*
X168131782Y-92513500D01*
X171868719Y-92513500D01*
X171871574Y-92513238D01*
X171871582Y-92513238D01*
X171927361Y-92508126D01*
X171997023Y-92521828D01*
X172048219Y-92571017D01*
X172062628Y-92609990D01*
X172065505Y-92625072D01*
X172163044Y-92925266D01*
X172164731Y-92928852D01*
X172164733Y-92928856D01*
X172295750Y-93207283D01*
X172295754Y-93207290D01*
X172297438Y-93210869D01*
X172466568Y-93477375D01*
X172667767Y-93720582D01*
X172670657Y-93723296D01*
X172670658Y-93723297D01*
X172706999Y-93757423D01*
X172897860Y-93936654D01*
X173153221Y-94122184D01*
X173156690Y-94124091D01*
X173156693Y-94124093D01*
X173426352Y-94272340D01*
X173429821Y-94274247D01*
X173433490Y-94275700D01*
X173433495Y-94275702D01*
X173525656Y-94312191D01*
X173723298Y-94390443D01*
X174029025Y-94468940D01*
X174342179Y-94508500D01*
X174657821Y-94508500D01*
X174970975Y-94468940D01*
X175276702Y-94390443D01*
X175474344Y-94312191D01*
X175566505Y-94275702D01*
X175566510Y-94275700D01*
X175570179Y-94274247D01*
X175573648Y-94272340D01*
X175843307Y-94124093D01*
X175843310Y-94124091D01*
X175846779Y-94122184D01*
X176102140Y-93936654D01*
X176105027Y-93933943D01*
X176274247Y-93775035D01*
X176337597Y-93742984D01*
X176408219Y-93750271D01*
X176463690Y-93794582D01*
X176486500Y-93866885D01*
X176486500Y-99193796D01*
X176486509Y-99194274D01*
X176486509Y-99194321D01*
X176486802Y-99210586D01*
X176486832Y-99212249D01*
X176487157Y-99221287D01*
X176488147Y-99239661D01*
X176489225Y-99244607D01*
X176489225Y-99244608D01*
X176494987Y-99271045D01*
X176519269Y-99382466D01*
X176520840Y-99386673D01*
X176520842Y-99386680D01*
X176542531Y-99444762D01*
X176544105Y-99448977D01*
X176614207Y-99577239D01*
X176717597Y-99680547D01*
X176774450Y-99723071D01*
X176778389Y-99725220D01*
X176778394Y-99725223D01*
X176890327Y-99786284D01*
X176902753Y-99793063D01*
X177005563Y-99815386D01*
X177041184Y-99823120D01*
X177041186Y-99823120D01*
X177045583Y-99824075D01*
X177050070Y-99824394D01*
X177050076Y-99824395D01*
X177087102Y-99827028D01*
X177116401Y-99829112D01*
X177116519Y-99829104D01*
X177183581Y-99848768D01*
X177230094Y-99902406D01*
X177241500Y-99954791D01*
X177241500Y-100047938D01*
X177221498Y-100116059D01*
X177167842Y-100162552D01*
X177115500Y-100173938D01*
X177070852Y-100173938D01*
X177036028Y-100178945D01*
X177005034Y-100183401D01*
X177005030Y-100183402D01*
X177000578Y-100184042D01*
X176996266Y-100185308D01*
X176996262Y-100185309D01*
X176871515Y-100221939D01*
X176860343Y-100225219D01*
X176852764Y-100230089D01*
X176852761Y-100230091D01*
X176796379Y-100266326D01*
X176737388Y-100304237D01*
X176683732Y-100350730D01*
X176680792Y-100354123D01*
X176593919Y-100454379D01*
X176593917Y-100454382D01*
X176588018Y-100461190D01*
X176527302Y-100594139D01*
X176507300Y-100662260D01*
X176506660Y-100666709D01*
X176506659Y-100666715D01*
X176487139Y-100802482D01*
X176486500Y-100806929D01*
X176486500Y-101360500D01*
X176466498Y-101428621D01*
X176412842Y-101475114D01*
X176360500Y-101486500D01*
X175213617Y-101486500D01*
X175145496Y-101466498D01*
X175099003Y-101412842D01*
X175088899Y-101342568D01*
X175090604Y-101333229D01*
X175127665Y-101166059D01*
X175183545Y-100913999D01*
X175190097Y-100864236D01*
X175216687Y-100662260D01*
X175243481Y-100458745D01*
X175263510Y-100000000D01*
X175243481Y-99541255D01*
X175183545Y-99086001D01*
X175084160Y-98637703D01*
X175041462Y-98502282D01*
X174946911Y-98202402D01*
X174946908Y-98202394D01*
X174946082Y-98199774D01*
X174770360Y-97775545D01*
X174558333Y-97368245D01*
X174311615Y-96980975D01*
X174032083Y-96616681D01*
X173721864Y-96278136D01*
X173383319Y-95967917D01*
X173381157Y-95966258D01*
X173381151Y-95966253D01*
X173153987Y-95791945D01*
X173019025Y-95688385D01*
X172631755Y-95441667D01*
X172224455Y-95229640D01*
X171800226Y-95053918D01*
X171797606Y-95053092D01*
X171797598Y-95053089D01*
X171364927Y-94916669D01*
X171364922Y-94916668D01*
X171362297Y-94915840D01*
X170913999Y-94816455D01*
X170911279Y-94816097D01*
X170911274Y-94816096D01*
X170722854Y-94791290D01*
X170458745Y-94756519D01*
X170000000Y-94736490D01*
X169541255Y-94756519D01*
X169277146Y-94791290D01*
X169088726Y-94816096D01*
X169088721Y-94816097D01*
X169086001Y-94816455D01*
X168637703Y-94915840D01*
X168635078Y-94916668D01*
X168635073Y-94916669D01*
X168202402Y-95053089D01*
X168202394Y-95053092D01*
X168199774Y-95053918D01*
X167775545Y-95229640D01*
X167368245Y-95441667D01*
X166980975Y-95688385D01*
X166846013Y-95791945D01*
X166618849Y-95966253D01*
X166618843Y-95966258D01*
X166616681Y-95967917D01*
X166278136Y-96278136D01*
X165967917Y-96616681D01*
X165688385Y-96980975D01*
X165441667Y-97368245D01*
X165229640Y-97775545D01*
X165053918Y-98199774D01*
X165053092Y-98202394D01*
X165053089Y-98202402D01*
X164958538Y-98502282D01*
X164915840Y-98637703D01*
X164816455Y-99086001D01*
X164756519Y-99541255D01*
X164742307Y-99866771D01*
X164736490Y-100000000D01*
X164756519Y-100458745D01*
X164783313Y-100662260D01*
X164809904Y-100864236D01*
X164816455Y-100913999D01*
X164915840Y-101362297D01*
X164916668Y-101364922D01*
X164916669Y-101364927D01*
X165048484Y-101782990D01*
X165053918Y-101800226D01*
X165173435Y-102088765D01*
X165227436Y-102219133D01*
X165229640Y-102224455D01*
X165441667Y-102631755D01*
X165688385Y-103019025D01*
X165820424Y-103191102D01*
X165911466Y-103309750D01*
X165967917Y-103383319D01*
X165969768Y-103385339D01*
X166208603Y-103645982D01*
X166239878Y-103709719D01*
X166231729Y-103780246D01*
X166186743Y-103835172D01*
X166152392Y-103851647D01*
X164816345Y-104258270D01*
X162498873Y-104963587D01*
X162427882Y-104964286D01*
X162367781Y-104926492D01*
X162337654Y-104862204D01*
X162336759Y-104855013D01*
X162321376Y-104693783D01*
X162320942Y-104689231D01*
X162275609Y-104503967D01*
X162257922Y-104431688D01*
X162256836Y-104427250D01*
X162155582Y-104177267D01*
X162019302Y-103944518D01*
X161901495Y-103797208D01*
X161853703Y-103737447D01*
X161853702Y-103737445D01*
X161850851Y-103733881D01*
X161653758Y-103549766D01*
X161432151Y-103396032D01*
X161428068Y-103394001D01*
X161428065Y-103393999D01*
X161263173Y-103311967D01*
X161190673Y-103275899D01*
X161186339Y-103274478D01*
X161186336Y-103274477D01*
X160938714Y-103193302D01*
X160938708Y-103193301D01*
X160934381Y-103191882D01*
X160929889Y-103191102D01*
X160672427Y-103146399D01*
X160672419Y-103146398D01*
X160668646Y-103145743D01*
X160657384Y-103145182D01*
X160584989Y-103141578D01*
X160584981Y-103141578D01*
X160583418Y-103141500D01*
X160415055Y-103141500D01*
X160412787Y-103141665D01*
X160412775Y-103141665D01*
X160281683Y-103151177D01*
X160214563Y-103156047D01*
X160210108Y-103157031D01*
X160210105Y-103157031D01*
X159955655Y-103213209D01*
X159955651Y-103213210D01*
X159951195Y-103214194D01*
X159825087Y-103261972D01*
X159703249Y-103308132D01*
X159703246Y-103308133D01*
X159698979Y-103309750D01*
X159463199Y-103440714D01*
X159248794Y-103604343D01*
X159245601Y-103607609D01*
X159245599Y-103607611D01*
X159229146Y-103624442D01*
X159060255Y-103797208D01*
X158901533Y-104015270D01*
X158899411Y-104019304D01*
X158778077Y-104249921D01*
X158778074Y-104249927D01*
X158775952Y-104253961D01*
X158774432Y-104258266D01*
X158774430Y-104258270D01*
X158710393Y-104439606D01*
X158686142Y-104508280D01*
X158633986Y-104772900D01*
X158633759Y-104777453D01*
X158633759Y-104777456D01*
X158621827Y-105017156D01*
X158620576Y-105042277D01*
X158646192Y-105310769D01*
X158710298Y-105572750D01*
X158811552Y-105822733D01*
X158947832Y-106055482D01*
X159116283Y-106266119D01*
X159313376Y-106450234D01*
X159534983Y-106603968D01*
X159539066Y-106605999D01*
X159539069Y-106606001D01*
X159654580Y-106663466D01*
X159776461Y-106724101D01*
X159780795Y-106725522D01*
X159780798Y-106725523D01*
X160028420Y-106806698D01*
X160028426Y-106806699D01*
X160032753Y-106808118D01*
X160037244Y-106808898D01*
X160037245Y-106808898D01*
X160294707Y-106853601D01*
X160294715Y-106853602D01*
X160298488Y-106854257D01*
X160302325Y-106854448D01*
X160382145Y-106858422D01*
X160382153Y-106858422D01*
X160383716Y-106858500D01*
X160552079Y-106858500D01*
X160554347Y-106858335D01*
X160554359Y-106858335D01*
X160685451Y-106848823D01*
X160752571Y-106843953D01*
X160757026Y-106842969D01*
X160757029Y-106842969D01*
X161011479Y-106786791D01*
X161011483Y-106786790D01*
X161015939Y-106785806D01*
X161142047Y-106738028D01*
X161263885Y-106691868D01*
X161263888Y-106691867D01*
X161268155Y-106690250D01*
X161503935Y-106559286D01*
X161718340Y-106395657D01*
X161770402Y-106342400D01*
X161832322Y-106307672D01*
X161903190Y-106311933D01*
X161960505Y-106353832D01*
X161986069Y-106420067D01*
X161986500Y-106430481D01*
X161986500Y-108778463D01*
X161966498Y-108846584D01*
X161912842Y-108893077D01*
X161842568Y-108903181D01*
X161788230Y-108881677D01*
X161780195Y-108876051D01*
X161775332Y-108872968D01*
X161719669Y-108841152D01*
X161707487Y-108835811D01*
X161557758Y-108788313D01*
X161542945Y-108785514D01*
X161387116Y-108775165D01*
X161372051Y-108775980D01*
X161218257Y-108803098D01*
X161203822Y-108807483D01*
X161060933Y-108870505D01*
X161047966Y-108878204D01*
X160924351Y-108973401D01*
X160920556Y-108981973D01*
X160928481Y-108991383D01*
X161878078Y-109656299D01*
X161922406Y-109711756D01*
X161929715Y-109782375D01*
X161909020Y-109831783D01*
X161594700Y-110280677D01*
X161539243Y-110325005D01*
X161468623Y-110332314D01*
X161419216Y-110311619D01*
X160470968Y-109647649D01*
X160456601Y-109642803D01*
X160451732Y-109647732D01*
X160451630Y-109647966D01*
X160404132Y-109797696D01*
X160401333Y-109812509D01*
X160396579Y-109884085D01*
X160372107Y-109950731D01*
X160315488Y-109993565D01*
X160244699Y-109998990D01*
X160184124Y-109967132D01*
X160108909Y-109895756D01*
X160104244Y-109891092D01*
X159983760Y-109764128D01*
X159604551Y-109364524D01*
X159600140Y-109359625D01*
X159161962Y-108846584D01*
X159128712Y-108807654D01*
X159124563Y-108802531D01*
X159113653Y-108788313D01*
X158682633Y-108226596D01*
X158678765Y-108221271D01*
X158267614Y-107623042D01*
X158264021Y-107617510D01*
X158028269Y-107232798D01*
X157884714Y-106998537D01*
X157881440Y-106992866D01*
X157644520Y-106556514D01*
X157535057Y-106354908D01*
X157532062Y-106349030D01*
X157219550Y-105693835D01*
X157216867Y-105687809D01*
X156939073Y-105017156D01*
X156936709Y-105010998D01*
X156760275Y-104512762D01*
X156694390Y-104326708D01*
X156692353Y-104320438D01*
X156671465Y-104249921D01*
X156486184Y-103624425D01*
X156484481Y-103618070D01*
X156481186Y-103604343D01*
X156315014Y-102912187D01*
X156313645Y-102905744D01*
X156237165Y-102493091D01*
X156181359Y-102191988D01*
X156180328Y-102185481D01*
X156166442Y-102080002D01*
X156085579Y-101465791D01*
X156084889Y-101459231D01*
X156046006Y-100965179D01*
X156027932Y-100735526D01*
X156027588Y-100728955D01*
X156027187Y-100713613D01*
X156027087Y-100709807D01*
X156742001Y-100709807D01*
X156742121Y-100713701D01*
X156744790Y-100756893D01*
X156746126Y-100766472D01*
X156790048Y-100967073D01*
X156793695Y-100978432D01*
X156874306Y-101166059D01*
X156880041Y-101176533D01*
X156994669Y-101345522D01*
X157002282Y-101354724D01*
X157146802Y-101498992D01*
X157156015Y-101506587D01*
X157325206Y-101620922D01*
X157335690Y-101626638D01*
X157523450Y-101706918D01*
X157534821Y-101710547D01*
X157735480Y-101754115D01*
X157745100Y-101755437D01*
X157786387Y-101757890D01*
X157790102Y-101758000D01*
X158973885Y-101758000D01*
X158989124Y-101753525D01*
X158990329Y-101752135D01*
X158992000Y-101744452D01*
X158992000Y-101739884D01*
X160008000Y-101739884D01*
X160012475Y-101755123D01*
X160013865Y-101756328D01*
X160021548Y-101757999D01*
X161209807Y-101757999D01*
X161213701Y-101757879D01*
X161256893Y-101755210D01*
X161266472Y-101753874D01*
X161467073Y-101709952D01*
X161478432Y-101706305D01*
X161666059Y-101625694D01*
X161676533Y-101619959D01*
X161845522Y-101505331D01*
X161854724Y-101497718D01*
X161998992Y-101353198D01*
X162006587Y-101343985D01*
X162120922Y-101174794D01*
X162126638Y-101164310D01*
X162206918Y-100976550D01*
X162210547Y-100965179D01*
X162254115Y-100764520D01*
X162255437Y-100754900D01*
X162257890Y-100713613D01*
X162258000Y-100709898D01*
X162258000Y-100526115D01*
X162253525Y-100510876D01*
X162252135Y-100509671D01*
X162244452Y-100508000D01*
X160026115Y-100508000D01*
X160010876Y-100512475D01*
X160009671Y-100513865D01*
X160008000Y-100521548D01*
X160008000Y-101739884D01*
X158992000Y-101739884D01*
X158992000Y-100526115D01*
X158987525Y-100510876D01*
X158986135Y-100509671D01*
X158978452Y-100508000D01*
X156760116Y-100508000D01*
X156744877Y-100512475D01*
X156743672Y-100513865D01*
X156742001Y-100521548D01*
X156742001Y-100709807D01*
X156027087Y-100709807D01*
X156008586Y-100003284D01*
X156008586Y-99996702D01*
X156022277Y-99473885D01*
X156742000Y-99473885D01*
X156746475Y-99489124D01*
X156747865Y-99490329D01*
X156755548Y-99492000D01*
X158973885Y-99492000D01*
X158989124Y-99487525D01*
X158990329Y-99486135D01*
X158992000Y-99478452D01*
X158992000Y-99473885D01*
X160008000Y-99473885D01*
X160012475Y-99489124D01*
X160013865Y-99490329D01*
X160021548Y-99492000D01*
X162239884Y-99492000D01*
X162255123Y-99487525D01*
X162256328Y-99486135D01*
X162257999Y-99478452D01*
X162257999Y-99290194D01*
X162257879Y-99286299D01*
X162255210Y-99243107D01*
X162253874Y-99233528D01*
X162209952Y-99032927D01*
X162206305Y-99021568D01*
X162125694Y-98833941D01*
X162119959Y-98823467D01*
X162005331Y-98654478D01*
X161997718Y-98645276D01*
X161853198Y-98501008D01*
X161843985Y-98493413D01*
X161674794Y-98379078D01*
X161664310Y-98373362D01*
X161476550Y-98293082D01*
X161465179Y-98289453D01*
X161264520Y-98245885D01*
X161254900Y-98244563D01*
X161213613Y-98242110D01*
X161209898Y-98242000D01*
X160026115Y-98242000D01*
X160010876Y-98246475D01*
X160009671Y-98247865D01*
X160008000Y-98255548D01*
X160008000Y-99473885D01*
X158992000Y-99473885D01*
X158992000Y-98260116D01*
X158987525Y-98244877D01*
X158986135Y-98243672D01*
X158978452Y-98242001D01*
X157790194Y-98242001D01*
X157786299Y-98242121D01*
X157743107Y-98244790D01*
X157733528Y-98246126D01*
X157532927Y-98290048D01*
X157521568Y-98293695D01*
X157333941Y-98374306D01*
X157323467Y-98380041D01*
X157154478Y-98494669D01*
X157145276Y-98502282D01*
X157001008Y-98646802D01*
X156993413Y-98656015D01*
X156879078Y-98825206D01*
X156873362Y-98835690D01*
X156793082Y-99023450D01*
X156789453Y-99034821D01*
X156745885Y-99235480D01*
X156744563Y-99245100D01*
X156742110Y-99286387D01*
X156742000Y-99290102D01*
X156742000Y-99473885D01*
X156022277Y-99473885D01*
X156027589Y-99271027D01*
X156027933Y-99264457D01*
X156029457Y-99245100D01*
X156084889Y-98540769D01*
X156085579Y-98534209D01*
X156180328Y-97814519D01*
X156181360Y-97808003D01*
X156276186Y-97296366D01*
X156313647Y-97094246D01*
X156315016Y-97087804D01*
X156340107Y-96983292D01*
X156484485Y-96381913D01*
X156486189Y-96375558D01*
X156514449Y-96280156D01*
X156692354Y-95679558D01*
X156694391Y-95673288D01*
X156936709Y-94989002D01*
X156939073Y-94982844D01*
X157216867Y-94312191D01*
X157219550Y-94306165D01*
X157319248Y-94097144D01*
X164126773Y-94097144D01*
X164135602Y-94108765D01*
X164150287Y-94119434D01*
X164156957Y-94123668D01*
X164426572Y-94271890D01*
X164433707Y-94275247D01*
X164719770Y-94388508D01*
X164727296Y-94390953D01*
X165025279Y-94467462D01*
X165033050Y-94468945D01*
X165338278Y-94507503D01*
X165346169Y-94508000D01*
X165653831Y-94508000D01*
X165661722Y-94507503D01*
X165966950Y-94468945D01*
X165974721Y-94467462D01*
X166272704Y-94390953D01*
X166280230Y-94388508D01*
X166566293Y-94275247D01*
X166573428Y-94271890D01*
X166843043Y-94123668D01*
X166849713Y-94119434D01*
X166864771Y-94108494D01*
X166873194Y-94097570D01*
X166866290Y-94084710D01*
X165512812Y-92731232D01*
X165498868Y-92723618D01*
X165497035Y-92723749D01*
X165490420Y-92728000D01*
X164133386Y-94085034D01*
X164126773Y-94097144D01*
X157319248Y-94097144D01*
X157532062Y-93650970D01*
X157535057Y-93645092D01*
X157696386Y-93347961D01*
X157881440Y-93007134D01*
X157884714Y-93001463D01*
X158249564Y-92406081D01*
X158264021Y-92382490D01*
X158267614Y-92376958D01*
X158487354Y-92057234D01*
X158678774Y-91778717D01*
X158682642Y-91773392D01*
X158701007Y-91749459D01*
X159124565Y-91197466D01*
X159128715Y-91192343D01*
X159447706Y-90818853D01*
X159600143Y-90640372D01*
X159604554Y-90635472D01*
X159834237Y-90393437D01*
X160104247Y-90108905D01*
X160108908Y-90104244D01*
X160114548Y-90098892D01*
X160635476Y-89604551D01*
X160640375Y-89600140D01*
X161192343Y-89128715D01*
X161197469Y-89124563D01*
X161725233Y-88719596D01*
X161773404Y-88682633D01*
X161778722Y-88678771D01*
X161789136Y-88671613D01*
X161856606Y-88649515D01*
X161925312Y-88667402D01*
G37*
%TD.AperFunction*%
%TD*%
%TA.AperFunction,Conductor*%
%TO.N,/RIGHT-*%
G36*
X176475070Y-102020002D02*
G01*
X176521563Y-102073658D01*
X176526501Y-102086210D01*
X176530175Y-102097247D01*
X176544290Y-102139657D01*
X176623308Y-102262612D01*
X176669801Y-102316268D01*
X176673194Y-102319208D01*
X176773450Y-102406081D01*
X176773453Y-102406083D01*
X176780261Y-102411982D01*
X176913210Y-102472698D01*
X176936964Y-102479673D01*
X176977008Y-102491431D01*
X176977012Y-102491432D01*
X176981331Y-102492700D01*
X176985780Y-102493340D01*
X176985786Y-102493341D01*
X177121553Y-102512861D01*
X177121558Y-102512861D01*
X177126000Y-102513500D01*
X177352501Y-102513500D01*
X177420622Y-102533502D01*
X177467115Y-102587158D01*
X177477219Y-102657432D01*
X177456898Y-102710049D01*
X177379078Y-102825206D01*
X177373362Y-102835690D01*
X177293082Y-103023450D01*
X177289453Y-103034821D01*
X177245885Y-103235480D01*
X177244563Y-103245100D01*
X177242110Y-103286387D01*
X177242000Y-103290102D01*
X177242000Y-103600885D01*
X177246475Y-103616124D01*
X177247865Y-103617329D01*
X177255548Y-103619000D01*
X182739884Y-103619000D01*
X182755123Y-103614525D01*
X182756328Y-103613135D01*
X182757999Y-103605452D01*
X182757999Y-103290194D01*
X182757879Y-103286299D01*
X182755210Y-103243107D01*
X182753874Y-103233528D01*
X182709952Y-103032927D01*
X182706305Y-103021568D01*
X182625694Y-102833941D01*
X182619959Y-102823467D01*
X182543149Y-102710231D01*
X182521462Y-102642628D01*
X182539767Y-102574032D01*
X182592252Y-102526221D01*
X182647423Y-102513500D01*
X183607554Y-102513500D01*
X183675675Y-102533502D01*
X183722168Y-102587158D01*
X183731444Y-102662461D01*
X183701282Y-102825206D01*
X183686355Y-102905744D01*
X183684988Y-102912179D01*
X183515519Y-103618070D01*
X183513816Y-103624425D01*
X183310755Y-104309946D01*
X183307647Y-104320438D01*
X183305609Y-104326712D01*
X183063291Y-105010998D01*
X183060927Y-105017156D01*
X182783133Y-105687809D01*
X182780450Y-105693835D01*
X182467938Y-106349030D01*
X182464943Y-106354908D01*
X182375786Y-106519115D01*
X182118560Y-106992866D01*
X182115286Y-106998537D01*
X181839625Y-107448375D01*
X181735979Y-107617510D01*
X181732386Y-107623042D01*
X181471272Y-108002966D01*
X181321235Y-108221271D01*
X181317367Y-108226596D01*
X180875437Y-108802531D01*
X180871285Y-108807657D01*
X180399860Y-109359625D01*
X180395449Y-109364524D01*
X179998422Y-109782904D01*
X179895756Y-109891092D01*
X179891095Y-109895753D01*
X179369263Y-110390953D01*
X179364528Y-110395446D01*
X179359628Y-110399857D01*
X179088220Y-110631662D01*
X178807657Y-110871285D01*
X178802534Y-110875435D01*
X178226596Y-111317367D01*
X178221283Y-111321226D01*
X177824318Y-111594053D01*
X177623042Y-111732386D01*
X177617510Y-111735979D01*
X176998537Y-112115286D01*
X176992866Y-112118560D01*
X176689505Y-112283272D01*
X176354908Y-112464943D01*
X176349030Y-112467938D01*
X175693835Y-112780450D01*
X175687809Y-112783133D01*
X175017156Y-113060927D01*
X175010998Y-113063291D01*
X174326712Y-113305609D01*
X174320442Y-113307646D01*
X173624425Y-113513816D01*
X173618087Y-113515515D01*
X172912187Y-113684986D01*
X172905754Y-113686353D01*
X172191988Y-113818641D01*
X172185490Y-113819671D01*
X171586778Y-113898493D01*
X171465791Y-113914421D01*
X171459231Y-113915111D01*
X171371580Y-113922009D01*
X170735526Y-113972068D01*
X170728973Y-113972411D01*
X170003284Y-113991414D01*
X169996716Y-113991414D01*
X169271027Y-113972411D01*
X169264474Y-113972068D01*
X168628420Y-113922009D01*
X168540769Y-113915111D01*
X168534209Y-113914421D01*
X168413222Y-113898493D01*
X167814510Y-113819671D01*
X167808012Y-113818641D01*
X167094246Y-113686353D01*
X167087813Y-113684986D01*
X166381913Y-113515515D01*
X166375575Y-113513816D01*
X165679558Y-113307646D01*
X165673288Y-113305609D01*
X164989002Y-113063291D01*
X164982844Y-113060927D01*
X164312191Y-112783133D01*
X164306165Y-112780450D01*
X163650970Y-112467938D01*
X163645092Y-112464943D01*
X163310495Y-112283272D01*
X163007134Y-112118560D01*
X163001442Y-112115273D01*
X162877158Y-112039111D01*
X162829527Y-111986464D01*
X162817920Y-111916422D01*
X162846023Y-111851225D01*
X162904914Y-111811571D01*
X162921113Y-111807593D01*
X162981744Y-111796902D01*
X162996178Y-111792517D01*
X163139067Y-111729495D01*
X163152034Y-111721796D01*
X163276489Y-111625951D01*
X163285715Y-111617142D01*
X163291772Y-111603466D01*
X163283844Y-111594053D01*
X162869369Y-111303833D01*
X162869360Y-111303828D01*
X162500000Y-111045199D01*
X162500000Y-110679847D01*
X163311745Y-110679847D01*
X163312194Y-110681634D01*
X163317524Y-110687405D01*
X163719564Y-110968916D01*
X163733929Y-110973761D01*
X163742577Y-110965006D01*
X163743028Y-110964218D01*
X163748370Y-110952034D01*
X163795868Y-110802304D01*
X163798667Y-110787491D01*
X163809016Y-110631662D01*
X163808201Y-110616598D01*
X163781082Y-110462800D01*
X163776698Y-110448371D01*
X163713678Y-110305484D01*
X163705974Y-110292509D01*
X163649735Y-110219481D01*
X163638334Y-110211187D01*
X163631903Y-110214813D01*
X163316821Y-110664798D01*
X163311745Y-110679847D01*
X162500000Y-110679847D01*
X162500000Y-110502831D01*
X162836985Y-110021566D01*
X164022747Y-110021566D01*
X164031576Y-110033186D01*
X164150280Y-110119430D01*
X164156961Y-110123670D01*
X164426572Y-110271890D01*
X164433707Y-110275247D01*
X164719770Y-110388508D01*
X164727296Y-110390953D01*
X165025279Y-110467462D01*
X165033050Y-110468945D01*
X165338278Y-110507503D01*
X165346169Y-110508000D01*
X165653831Y-110508000D01*
X165661722Y-110507503D01*
X165966950Y-110468945D01*
X165974721Y-110467462D01*
X166272704Y-110390953D01*
X166280230Y-110388508D01*
X166566293Y-110275247D01*
X166573428Y-110271890D01*
X166843039Y-110123670D01*
X166849720Y-110119430D01*
X166968797Y-110032916D01*
X166977220Y-110021993D01*
X166976991Y-110021566D01*
X173022747Y-110021566D01*
X173031576Y-110033186D01*
X173150280Y-110119430D01*
X173156961Y-110123670D01*
X173426572Y-110271890D01*
X173433707Y-110275247D01*
X173719770Y-110388508D01*
X173727296Y-110390953D01*
X174025279Y-110467462D01*
X174033050Y-110468945D01*
X174338278Y-110507503D01*
X174346169Y-110508000D01*
X174653831Y-110508000D01*
X174661722Y-110507503D01*
X174966950Y-110468945D01*
X174974721Y-110467462D01*
X175272704Y-110390953D01*
X175280230Y-110388508D01*
X175566293Y-110275247D01*
X175573428Y-110271890D01*
X175843039Y-110123670D01*
X175849720Y-110119430D01*
X175968797Y-110032916D01*
X175977220Y-110021993D01*
X175970316Y-110009132D01*
X174512810Y-108551625D01*
X174498869Y-108544013D01*
X174497034Y-108544144D01*
X174490420Y-108548395D01*
X173029360Y-110009456D01*
X173022747Y-110021566D01*
X166976991Y-110021566D01*
X166970316Y-110009132D01*
X165512810Y-108551625D01*
X165498869Y-108544013D01*
X165497034Y-108544144D01*
X165490420Y-108548395D01*
X164029360Y-110009456D01*
X164022747Y-110021566D01*
X162836985Y-110021566D01*
X163004098Y-109782904D01*
X163008605Y-109769542D01*
X163003223Y-109764491D01*
X162909358Y-109734715D01*
X162894545Y-109731916D01*
X162738716Y-109721567D01*
X162723653Y-109722382D01*
X162647880Y-109735743D01*
X162577320Y-109727874D01*
X162522217Y-109683106D01*
X162500000Y-109611657D01*
X162500000Y-108003958D01*
X162987290Y-108003958D01*
X163006607Y-108310994D01*
X163007600Y-108318855D01*
X163065246Y-108621046D01*
X163067217Y-108628723D01*
X163162284Y-108921309D01*
X163165199Y-108928672D01*
X163296189Y-109207041D01*
X163300001Y-109213974D01*
X163464727Y-109473540D01*
X163475701Y-109480952D01*
X163486439Y-109474745D01*
X164948375Y-108012810D01*
X164954752Y-108001131D01*
X166044013Y-108001131D01*
X166044144Y-108002966D01*
X166048395Y-108009580D01*
X167512459Y-109473643D01*
X167525721Y-109480885D01*
X167534483Y-109474652D01*
X167535151Y-109473733D01*
X167699999Y-109213974D01*
X167703811Y-109207041D01*
X167834801Y-108928672D01*
X167837716Y-108921309D01*
X167932783Y-108628723D01*
X167934754Y-108621046D01*
X167992400Y-108318855D01*
X167993393Y-108310994D01*
X168012710Y-108003958D01*
X171987290Y-108003958D01*
X172006607Y-108310994D01*
X172007600Y-108318855D01*
X172065246Y-108621046D01*
X172067217Y-108628723D01*
X172162284Y-108921309D01*
X172165199Y-108928672D01*
X172296189Y-109207041D01*
X172300001Y-109213974D01*
X172464727Y-109473540D01*
X172475701Y-109480952D01*
X172486439Y-109474745D01*
X173948375Y-108012810D01*
X173954752Y-108001131D01*
X175044013Y-108001131D01*
X175044144Y-108002966D01*
X175048395Y-108009580D01*
X176512459Y-109473643D01*
X176525721Y-109480885D01*
X176534483Y-109474652D01*
X176535151Y-109473733D01*
X176699999Y-109213974D01*
X176703811Y-109207041D01*
X176834801Y-108928672D01*
X176837716Y-108921309D01*
X176932783Y-108628723D01*
X176934754Y-108621046D01*
X176992400Y-108318855D01*
X176993393Y-108310994D01*
X177012710Y-108003958D01*
X177012710Y-107996042D01*
X176993393Y-107689006D01*
X176992400Y-107681145D01*
X176934754Y-107378954D01*
X176932783Y-107371277D01*
X176837716Y-107078691D01*
X176834801Y-107071328D01*
X176703811Y-106792959D01*
X176699999Y-106786026D01*
X176535273Y-106526460D01*
X176524299Y-106519048D01*
X176513561Y-106525255D01*
X175051625Y-107987190D01*
X175044013Y-108001131D01*
X173954752Y-108001131D01*
X173955987Y-107998869D01*
X173955856Y-107997034D01*
X173951605Y-107990420D01*
X172487541Y-106526357D01*
X172474279Y-106519115D01*
X172465517Y-106525348D01*
X172464849Y-106526267D01*
X172300001Y-106786026D01*
X172296189Y-106792959D01*
X172165199Y-107071328D01*
X172162284Y-107078691D01*
X172067217Y-107371277D01*
X172065246Y-107378954D01*
X172007600Y-107681145D01*
X172006607Y-107689006D01*
X171987290Y-107996042D01*
X171987290Y-108003958D01*
X168012710Y-108003958D01*
X168012710Y-107996042D01*
X167993393Y-107689006D01*
X167992400Y-107681145D01*
X167934754Y-107378954D01*
X167932783Y-107371277D01*
X167837716Y-107078691D01*
X167834801Y-107071328D01*
X167703811Y-106792959D01*
X167699999Y-106786026D01*
X167535273Y-106526460D01*
X167524299Y-106519048D01*
X167513561Y-106525255D01*
X166051625Y-107987190D01*
X166044013Y-108001131D01*
X164954752Y-108001131D01*
X164955987Y-107998869D01*
X164955856Y-107997034D01*
X164951605Y-107990420D01*
X163487541Y-106526357D01*
X163474279Y-106519115D01*
X163465517Y-106525348D01*
X163464849Y-106526267D01*
X163300001Y-106786026D01*
X163296189Y-106792959D01*
X163165199Y-107071328D01*
X163162284Y-107078691D01*
X163067217Y-107371277D01*
X163065246Y-107378954D01*
X163007600Y-107681145D01*
X163006607Y-107689006D01*
X162987290Y-107996042D01*
X162987290Y-108003958D01*
X162500000Y-108003958D01*
X162500000Y-105978007D01*
X164022780Y-105978007D01*
X164029684Y-105990868D01*
X165487190Y-107448375D01*
X165501131Y-107455987D01*
X165502966Y-107455856D01*
X165509580Y-107451605D01*
X166970640Y-105990544D01*
X166977253Y-105978434D01*
X166976929Y-105978007D01*
X173022780Y-105978007D01*
X173029684Y-105990868D01*
X174487190Y-107448375D01*
X174501131Y-107455987D01*
X174502966Y-107455856D01*
X174509580Y-107451605D01*
X175970640Y-105990544D01*
X175977253Y-105978434D01*
X175968424Y-105966814D01*
X175849720Y-105880570D01*
X175843039Y-105876330D01*
X175573428Y-105728110D01*
X175566293Y-105724753D01*
X175280230Y-105611492D01*
X175272704Y-105609047D01*
X174974721Y-105532538D01*
X174966950Y-105531055D01*
X174661722Y-105492497D01*
X174653831Y-105492000D01*
X174346169Y-105492000D01*
X174338278Y-105492497D01*
X174033050Y-105531055D01*
X174025279Y-105532538D01*
X173727296Y-105609047D01*
X173719770Y-105611492D01*
X173433707Y-105724753D01*
X173426572Y-105728110D01*
X173156961Y-105876330D01*
X173150280Y-105880570D01*
X173031203Y-105967084D01*
X173022780Y-105978007D01*
X166976929Y-105978007D01*
X166968424Y-105966814D01*
X166849720Y-105880570D01*
X166843039Y-105876330D01*
X166573428Y-105728110D01*
X166566293Y-105724753D01*
X166280230Y-105611492D01*
X166272704Y-105609047D01*
X165974721Y-105532538D01*
X165966950Y-105531055D01*
X165661722Y-105492497D01*
X165653831Y-105492000D01*
X165346169Y-105492000D01*
X165338278Y-105492497D01*
X165033050Y-105531055D01*
X165025279Y-105532538D01*
X164727296Y-105609047D01*
X164719770Y-105611492D01*
X164433707Y-105724753D01*
X164426572Y-105728110D01*
X164156961Y-105876330D01*
X164150280Y-105880570D01*
X164031203Y-105967084D01*
X164022780Y-105978007D01*
X162500000Y-105978007D01*
X162500000Y-105593358D01*
X162520002Y-105525237D01*
X162573658Y-105478744D01*
X162589307Y-105472819D01*
X166755329Y-104204900D01*
X166826322Y-104204201D01*
X166868719Y-104225478D01*
X166980975Y-104311615D01*
X167368245Y-104558333D01*
X167775545Y-104770360D01*
X168199774Y-104946082D01*
X168202394Y-104946908D01*
X168202402Y-104946911D01*
X168635073Y-105083331D01*
X168635078Y-105083332D01*
X168637703Y-105084160D01*
X169086001Y-105183545D01*
X169088721Y-105183903D01*
X169088726Y-105183904D01*
X169258735Y-105206286D01*
X169541255Y-105243481D01*
X170000000Y-105263510D01*
X170458745Y-105243481D01*
X170741265Y-105206286D01*
X170911274Y-105183904D01*
X170911279Y-105183903D01*
X170913999Y-105183545D01*
X171362297Y-105084160D01*
X171364922Y-105083332D01*
X171364927Y-105083331D01*
X171797598Y-104946911D01*
X171797606Y-104946908D01*
X171800226Y-104946082D01*
X172224455Y-104770360D01*
X172340776Y-104709807D01*
X177242001Y-104709807D01*
X177242121Y-104713701D01*
X177244790Y-104756893D01*
X177246126Y-104766472D01*
X177290048Y-104967073D01*
X177293695Y-104978432D01*
X177374306Y-105166059D01*
X177380041Y-105176533D01*
X177494669Y-105345522D01*
X177502282Y-105354724D01*
X177646802Y-105498992D01*
X177656015Y-105506587D01*
X177825206Y-105620922D01*
X177835690Y-105626638D01*
X178023450Y-105706918D01*
X178034821Y-105710547D01*
X178235480Y-105754115D01*
X178245100Y-105755437D01*
X178286387Y-105757890D01*
X178290102Y-105758000D01*
X179600885Y-105758000D01*
X179616124Y-105753525D01*
X179617329Y-105752135D01*
X179619000Y-105744452D01*
X179619000Y-105739884D01*
X180381000Y-105739884D01*
X180385475Y-105755123D01*
X180386865Y-105756328D01*
X180394548Y-105757999D01*
X181709807Y-105757999D01*
X181713701Y-105757879D01*
X181756893Y-105755210D01*
X181766472Y-105753874D01*
X181967073Y-105709952D01*
X181978432Y-105706305D01*
X182166059Y-105625694D01*
X182176533Y-105619959D01*
X182345522Y-105505331D01*
X182354724Y-105497718D01*
X182498992Y-105353198D01*
X182506587Y-105343985D01*
X182620922Y-105174794D01*
X182626638Y-105164310D01*
X182706918Y-104976550D01*
X182710547Y-104965179D01*
X182754115Y-104764520D01*
X182755437Y-104754900D01*
X182757890Y-104713613D01*
X182758000Y-104709898D01*
X182758000Y-104399115D01*
X182753525Y-104383876D01*
X182752135Y-104382671D01*
X182744452Y-104381000D01*
X180399115Y-104381000D01*
X180383876Y-104385475D01*
X180382671Y-104386865D01*
X180381000Y-104394548D01*
X180381000Y-105739884D01*
X179619000Y-105739884D01*
X179619000Y-104399115D01*
X179614525Y-104383876D01*
X179613135Y-104382671D01*
X179605452Y-104381000D01*
X177260116Y-104381000D01*
X177244877Y-104385475D01*
X177243672Y-104386865D01*
X177242001Y-104394548D01*
X177242001Y-104709807D01*
X172340776Y-104709807D01*
X172631755Y-104558333D01*
X173019025Y-104311615D01*
X173329883Y-104073086D01*
X173381151Y-104033747D01*
X173381157Y-104033742D01*
X173383319Y-104032083D01*
X173721864Y-103721864D01*
X174032083Y-103383319D01*
X174311615Y-103019025D01*
X174558333Y-102631755D01*
X174770360Y-102224455D01*
X174772565Y-102219133D01*
X174831114Y-102077782D01*
X174875662Y-102022501D01*
X174947523Y-102000000D01*
X176406949Y-102000000D01*
X176475070Y-102020002D01*
G37*
%TD.AperFunction*%
%TD*%
%TA.AperFunction,Conductor*%
%TO.N,/RIGHT+*%
G36*
X170728973Y-86027589D02*
G01*
X170735526Y-86027932D01*
X171371580Y-86077991D01*
X171459231Y-86084889D01*
X171465793Y-86085579D01*
X172185490Y-86180329D01*
X172191988Y-86181359D01*
X172905754Y-86313647D01*
X172912187Y-86315014D01*
X173618087Y-86484485D01*
X173624425Y-86486184D01*
X174320438Y-86692353D01*
X174326712Y-86694391D01*
X175010998Y-86936709D01*
X175017156Y-86939073D01*
X175687809Y-87216867D01*
X175693835Y-87219550D01*
X176349030Y-87532062D01*
X176354908Y-87535057D01*
X176579056Y-87656759D01*
X176992866Y-87881440D01*
X176998537Y-87884714D01*
X177357976Y-88104978D01*
X177617510Y-88264021D01*
X177623042Y-88267614D01*
X178221283Y-88678774D01*
X178226596Y-88682633D01*
X178759557Y-89091588D01*
X178802531Y-89124563D01*
X178807657Y-89128715D01*
X179359625Y-89600140D01*
X179364524Y-89604551D01*
X179746271Y-89966814D01*
X179891092Y-90104244D01*
X179895753Y-90108905D01*
X180291998Y-90526460D01*
X180395446Y-90635472D01*
X180399857Y-90640372D01*
X180552295Y-90818853D01*
X180871285Y-91192343D01*
X180875435Y-91197466D01*
X181252606Y-91689005D01*
X181317358Y-91773392D01*
X181321226Y-91778717D01*
X181438013Y-91948642D01*
X181732386Y-92376958D01*
X181735979Y-92382490D01*
X182115286Y-93001463D01*
X182118560Y-93007134D01*
X182231863Y-93215812D01*
X182464943Y-93645092D01*
X182467938Y-93650970D01*
X182780450Y-94306165D01*
X182783133Y-94312191D01*
X183060927Y-94982844D01*
X183063291Y-94989002D01*
X183178807Y-95315209D01*
X183241313Y-95491720D01*
X183305609Y-95673288D01*
X183307646Y-95679558D01*
X183481394Y-96266119D01*
X183513811Y-96375558D01*
X183515515Y-96381913D01*
X183664098Y-97000807D01*
X183684984Y-97087804D01*
X183686353Y-97094246D01*
X183723814Y-97296366D01*
X183818640Y-97808003D01*
X183819672Y-97814519D01*
X183914421Y-98534209D01*
X183915111Y-98540769D01*
X183970387Y-99243107D01*
X183972067Y-99264457D01*
X183972411Y-99271027D01*
X183990128Y-99947593D01*
X183991414Y-99996702D01*
X183991414Y-100003284D01*
X183972814Y-100713613D01*
X183972412Y-100728955D01*
X183972068Y-100735526D01*
X183958022Y-100913999D01*
X183915111Y-101459231D01*
X183914421Y-101465791D01*
X183858514Y-101890446D01*
X183829792Y-101955373D01*
X183770526Y-101994465D01*
X183733592Y-102000000D01*
X181806929Y-102000000D01*
X181738808Y-101979998D01*
X181692315Y-101926342D01*
X181682211Y-101856068D01*
X181711705Y-101791488D01*
X181771431Y-101753104D01*
X181779980Y-101750916D01*
X181967073Y-101709952D01*
X181978432Y-101706305D01*
X182166059Y-101625694D01*
X182176533Y-101619959D01*
X182345522Y-101505331D01*
X182354724Y-101497718D01*
X182498992Y-101353198D01*
X182506587Y-101343985D01*
X182620922Y-101174794D01*
X182626638Y-101164310D01*
X182706918Y-100976550D01*
X182710547Y-100965179D01*
X182754115Y-100764520D01*
X182755437Y-100754900D01*
X182757890Y-100713613D01*
X182758000Y-100709898D01*
X182758000Y-100399115D01*
X182753525Y-100383876D01*
X182752135Y-100382671D01*
X182744452Y-100381000D01*
X179745000Y-100381000D01*
X179676879Y-100360998D01*
X179630386Y-100307342D01*
X179619000Y-100255000D01*
X179619000Y-99600885D01*
X180381000Y-99600885D01*
X180385475Y-99616124D01*
X180386865Y-99617329D01*
X180394548Y-99619000D01*
X182739884Y-99619000D01*
X182755123Y-99614525D01*
X182756328Y-99613135D01*
X182757999Y-99605452D01*
X182757999Y-99290194D01*
X182757879Y-99286299D01*
X182755210Y-99243107D01*
X182753874Y-99233528D01*
X182709952Y-99032927D01*
X182706305Y-99021568D01*
X182625694Y-98833941D01*
X182619959Y-98823467D01*
X182505331Y-98654478D01*
X182497718Y-98645276D01*
X182353198Y-98501008D01*
X182343985Y-98493413D01*
X182174794Y-98379078D01*
X182164310Y-98373362D01*
X181976550Y-98293082D01*
X181965179Y-98289453D01*
X181764520Y-98245885D01*
X181754900Y-98244563D01*
X181713613Y-98242110D01*
X181709898Y-98242000D01*
X180399115Y-98242000D01*
X180383876Y-98246475D01*
X180382671Y-98247865D01*
X180381000Y-98255548D01*
X180381000Y-99600885D01*
X179619000Y-99600885D01*
X179619000Y-98260116D01*
X179614525Y-98244877D01*
X179613135Y-98243672D01*
X179605452Y-98242001D01*
X178290194Y-98242001D01*
X178286299Y-98242121D01*
X178243107Y-98244790D01*
X178233528Y-98246126D01*
X178032927Y-98290048D01*
X178021568Y-98293695D01*
X177833941Y-98374306D01*
X177823467Y-98380041D01*
X177654478Y-98494669D01*
X177645276Y-98502282D01*
X177501008Y-98646802D01*
X177493413Y-98656015D01*
X177379078Y-98825206D01*
X177373362Y-98835690D01*
X177293082Y-99023450D01*
X177289453Y-99034821D01*
X177249131Y-99220531D01*
X177215130Y-99282856D01*
X177152832Y-99316906D01*
X177082014Y-99311869D01*
X177025161Y-99269345D01*
X177000325Y-99202834D01*
X177000000Y-99193796D01*
X177000000Y-95042277D01*
X177653442Y-95042277D01*
X177679058Y-95310769D01*
X177680143Y-95315203D01*
X177680144Y-95315209D01*
X177727897Y-95510358D01*
X177743164Y-95572750D01*
X177844418Y-95822733D01*
X177980698Y-96055482D01*
X177983551Y-96059049D01*
X178129002Y-96240926D01*
X178149149Y-96266119D01*
X178346242Y-96450234D01*
X178567849Y-96603968D01*
X178571932Y-96605999D01*
X178571935Y-96606001D01*
X178593403Y-96616681D01*
X178809327Y-96724101D01*
X178813661Y-96725522D01*
X178813664Y-96725523D01*
X179061286Y-96806698D01*
X179061292Y-96806699D01*
X179065619Y-96808118D01*
X179070110Y-96808898D01*
X179070111Y-96808898D01*
X179327573Y-96853601D01*
X179327581Y-96853602D01*
X179331354Y-96854257D01*
X179335191Y-96854448D01*
X179415011Y-96858422D01*
X179415019Y-96858422D01*
X179416582Y-96858500D01*
X179584945Y-96858500D01*
X179587213Y-96858335D01*
X179587225Y-96858335D01*
X179718317Y-96848823D01*
X179785437Y-96843953D01*
X179789892Y-96842969D01*
X179789895Y-96842969D01*
X180044345Y-96786791D01*
X180044349Y-96786790D01*
X180048805Y-96785806D01*
X180191172Y-96731868D01*
X180296751Y-96691868D01*
X180296754Y-96691867D01*
X180301021Y-96690250D01*
X180462886Y-96600342D01*
X180532808Y-96561504D01*
X180532809Y-96561503D01*
X180536801Y-96559286D01*
X180751206Y-96395657D01*
X180767751Y-96378733D01*
X180936550Y-96206060D01*
X180939745Y-96202792D01*
X181098467Y-95984730D01*
X181181623Y-95826676D01*
X181221923Y-95750079D01*
X181221926Y-95750073D01*
X181224048Y-95746039D01*
X181286811Y-95568312D01*
X181312335Y-95496033D01*
X181312335Y-95496032D01*
X181313858Y-95491720D01*
X181366014Y-95227100D01*
X181366241Y-95222544D01*
X181379197Y-94962292D01*
X181379197Y-94962286D01*
X181379424Y-94957723D01*
X181353808Y-94689231D01*
X181308475Y-94503967D01*
X181290788Y-94431688D01*
X181289702Y-94427250D01*
X181188448Y-94177267D01*
X181052168Y-93944518D01*
X180934361Y-93797208D01*
X180886569Y-93737447D01*
X180886568Y-93737445D01*
X180883717Y-93733881D01*
X180686624Y-93549766D01*
X180465017Y-93396032D01*
X180460934Y-93394001D01*
X180460931Y-93393999D01*
X180296039Y-93311967D01*
X180223539Y-93275899D01*
X180219205Y-93274478D01*
X180219202Y-93274477D01*
X179971580Y-93193302D01*
X179971574Y-93193301D01*
X179967247Y-93191882D01*
X179962755Y-93191102D01*
X179705293Y-93146399D01*
X179705285Y-93146398D01*
X179701512Y-93145743D01*
X179690250Y-93145182D01*
X179617855Y-93141578D01*
X179617847Y-93141578D01*
X179616284Y-93141500D01*
X179447921Y-93141500D01*
X179445653Y-93141665D01*
X179445641Y-93141665D01*
X179314549Y-93151177D01*
X179247429Y-93156047D01*
X179242974Y-93157031D01*
X179242971Y-93157031D01*
X178988521Y-93213209D01*
X178988517Y-93213210D01*
X178984061Y-93214194D01*
X178857953Y-93261972D01*
X178736115Y-93308132D01*
X178736112Y-93308133D01*
X178731845Y-93309750D01*
X178496065Y-93440714D01*
X178281660Y-93604343D01*
X178093121Y-93797208D01*
X177934399Y-94015270D01*
X177932277Y-94019304D01*
X177810943Y-94249921D01*
X177810940Y-94249927D01*
X177808818Y-94253961D01*
X177807298Y-94258266D01*
X177807296Y-94258270D01*
X177732900Y-94468940D01*
X177719008Y-94508280D01*
X177718125Y-94512762D01*
X177670081Y-94756519D01*
X177666852Y-94772900D01*
X177666625Y-94777453D01*
X177666625Y-94777456D01*
X177656249Y-94985895D01*
X177653442Y-95042277D01*
X177000000Y-95042277D01*
X177000000Y-92209935D01*
X177000249Y-92202024D01*
X177012710Y-92003958D01*
X177012710Y-91996042D01*
X176993393Y-91689006D01*
X176992400Y-91681145D01*
X176934754Y-91378954D01*
X176932783Y-91371277D01*
X176837716Y-91078691D01*
X176834801Y-91071328D01*
X176703811Y-90792959D01*
X176699999Y-90786026D01*
X176535273Y-90526460D01*
X176524299Y-90519048D01*
X176513561Y-90525255D01*
X175038815Y-92000000D01*
X173961185Y-92000000D01*
X172487541Y-90526357D01*
X172474279Y-90519115D01*
X172465517Y-90525348D01*
X172464849Y-90526267D01*
X172300001Y-90786026D01*
X172296189Y-90792959D01*
X172165199Y-91071328D01*
X172162284Y-91078691D01*
X172067217Y-91371277D01*
X172065246Y-91378954D01*
X172007600Y-91681145D01*
X172006607Y-91689005D01*
X171994470Y-91881912D01*
X171970230Y-91948642D01*
X171913761Y-91991674D01*
X171868719Y-92000000D01*
X168131782Y-92000000D01*
X168063661Y-91979998D01*
X168017168Y-91926342D01*
X168006031Y-91881912D01*
X167993890Y-91688942D01*
X167993641Y-91684980D01*
X167934495Y-91374928D01*
X167836956Y-91074734D01*
X167835267Y-91071144D01*
X167704250Y-90792717D01*
X167704246Y-90792710D01*
X167702562Y-90789131D01*
X167533432Y-90522625D01*
X167332233Y-90279418D01*
X167102140Y-90063346D01*
X166984681Y-89978007D01*
X173022780Y-89978007D01*
X173029684Y-89990868D01*
X174487190Y-91448375D01*
X174501131Y-91455987D01*
X174502966Y-91455856D01*
X174509580Y-91451605D01*
X175970640Y-89990544D01*
X175977253Y-89978434D01*
X175968424Y-89966814D01*
X175849720Y-89880570D01*
X175843039Y-89876330D01*
X175573428Y-89728110D01*
X175566293Y-89724753D01*
X175280230Y-89611492D01*
X175272704Y-89609047D01*
X174974721Y-89532538D01*
X174966950Y-89531055D01*
X174661722Y-89492497D01*
X174653831Y-89492000D01*
X174346169Y-89492000D01*
X174338278Y-89492497D01*
X174033050Y-89531055D01*
X174025279Y-89532538D01*
X173727296Y-89609047D01*
X173719770Y-89611492D01*
X173433707Y-89724753D01*
X173426572Y-89728110D01*
X173156961Y-89876330D01*
X173150280Y-89880570D01*
X173031203Y-89967084D01*
X173022780Y-89978007D01*
X166984681Y-89978007D01*
X166846779Y-89877816D01*
X166574467Y-89728110D01*
X166573648Y-89727660D01*
X166573647Y-89727659D01*
X166570179Y-89725753D01*
X166566510Y-89724300D01*
X166566505Y-89724298D01*
X166280372Y-89611010D01*
X166280371Y-89611010D01*
X166276702Y-89609557D01*
X165970975Y-89531060D01*
X165657821Y-89491500D01*
X165342179Y-89491500D01*
X165029025Y-89531060D01*
X164723298Y-89609557D01*
X164719629Y-89611010D01*
X164719628Y-89611010D01*
X164433495Y-89724298D01*
X164433490Y-89724300D01*
X164429821Y-89725753D01*
X164426353Y-89727659D01*
X164426352Y-89727660D01*
X164425534Y-89728110D01*
X164153221Y-89877816D01*
X163897860Y-90063346D01*
X163667767Y-90279418D01*
X163466568Y-90522625D01*
X163297438Y-90789131D01*
X163295754Y-90792710D01*
X163295750Y-90792717D01*
X163164733Y-91071144D01*
X163163044Y-91074734D01*
X163065505Y-91374928D01*
X163006359Y-91684980D01*
X163006110Y-91688942D01*
X162993969Y-91881912D01*
X162969729Y-91948642D01*
X162913260Y-91991674D01*
X162868218Y-92000000D01*
X162626000Y-92000000D01*
X162557879Y-91979998D01*
X162511386Y-91926342D01*
X162500000Y-91874000D01*
X162500000Y-88262575D01*
X162520002Y-88194454D01*
X162560165Y-88155142D01*
X162730689Y-88050644D01*
X163001463Y-87884714D01*
X163007134Y-87881440D01*
X163420944Y-87656759D01*
X163645092Y-87535057D01*
X163650970Y-87532062D01*
X164306165Y-87219550D01*
X164312191Y-87216867D01*
X164982844Y-86939073D01*
X164989002Y-86936709D01*
X165673288Y-86694391D01*
X165679562Y-86692353D01*
X166375575Y-86486184D01*
X166381913Y-86484485D01*
X167087813Y-86315014D01*
X167094246Y-86313647D01*
X167808012Y-86181359D01*
X167814510Y-86180329D01*
X168534207Y-86085579D01*
X168540769Y-86084889D01*
X168628420Y-86077991D01*
X169264474Y-86027932D01*
X169271027Y-86027589D01*
X169996716Y-86008586D01*
X170003284Y-86008586D01*
X170728973Y-86027589D01*
G37*
%TD.AperFunction*%
%TD*%
M02*
