%TF.GenerationSoftware,KiCad,Pcbnew,(6.0.4)*%
%TF.CreationDate,2022-05-31T22:59:13-07:00*%
%TF.ProjectId,VP_SPEAKER_ADAPTER,56505f53-5045-4414-9b45-525f41444150,rev?*%
%TF.SameCoordinates,Original*%
%TF.FileFunction,Legend,Top*%
%TF.FilePolarity,Positive*%
%FSLAX46Y46*%
G04 Gerber Fmt 4.6, Leading zero omitted, Abs format (unit mm)*
G04 Created by KiCad (PCBNEW (6.0.4)) date 2022-05-31 22:59:13*
%MOMM*%
%LPD*%
G01*
G04 APERTURE LIST*
%ADD10C,0.250000*%
%ADD11C,0.150000*%
%ADD12C,0.120000*%
G04 APERTURE END LIST*
D10*
X159571428Y-92085714D02*
X159571428Y-92752380D01*
X159333333Y-91704761D02*
X159095238Y-92419047D01*
X159714285Y-92419047D01*
X160095238Y-92657142D02*
X160142857Y-92704761D01*
X160095238Y-92752380D01*
X160047619Y-92704761D01*
X160095238Y-92657142D01*
X160095238Y-92752380D01*
X160476190Y-91752380D02*
X161095238Y-91752380D01*
X160761904Y-92133333D01*
X160904761Y-92133333D01*
X161000000Y-92180952D01*
X161047619Y-92228571D01*
X161095238Y-92323809D01*
X161095238Y-92561904D01*
X161047619Y-92657142D01*
X161000000Y-92704761D01*
X160904761Y-92752380D01*
X160619047Y-92752380D01*
X160523809Y-92704761D01*
X160476190Y-92657142D01*
X161523809Y-92752380D02*
X161523809Y-91752380D01*
X161619047Y-92371428D02*
X161904761Y-92752380D01*
X161904761Y-92085714D02*
X161523809Y-92466666D01*
D11*
X173302196Y-112100793D02*
X173711893Y-112685902D01*
X173754826Y-112830237D01*
X173731437Y-112962877D01*
X173641729Y-113083824D01*
X173563714Y-113138450D01*
X174655917Y-112373682D02*
X174265845Y-112646814D01*
X173692268Y-111827661D01*
X175342428Y-111776717D02*
X175330734Y-111843038D01*
X175241026Y-111963984D01*
X175163011Y-112018611D01*
X175018676Y-112061543D01*
X174886035Y-112038155D01*
X174792402Y-111987454D01*
X174644142Y-111858738D01*
X174562203Y-111741716D01*
X174491957Y-111558374D01*
X174476338Y-111453046D01*
X174499726Y-111320405D01*
X174589435Y-111199459D01*
X174667449Y-111144832D01*
X174811784Y-111101900D01*
X174878105Y-111113594D01*
X175408587Y-110625882D02*
X175818284Y-111210991D01*
X175861216Y-111355326D01*
X175837828Y-111487967D01*
X175748120Y-111608913D01*
X175670105Y-111663540D01*
X176762308Y-110898771D02*
X176372236Y-111171903D01*
X175798659Y-110352751D01*
X177448819Y-110301806D02*
X177437125Y-110368127D01*
X177347417Y-110489074D01*
X177269402Y-110543700D01*
X177125067Y-110586632D01*
X176992426Y-110563244D01*
X176898793Y-110512543D01*
X176750533Y-110383827D01*
X176668594Y-110266805D01*
X176598348Y-110083463D01*
X176582729Y-109978135D01*
X176606117Y-109845495D01*
X176695826Y-109724548D01*
X176773840Y-109669922D01*
X176918175Y-109626989D01*
X176984495Y-109638683D01*
X177514978Y-109150971D02*
X177924675Y-109736080D01*
X177967607Y-109880415D01*
X177944219Y-110013056D01*
X177854511Y-110134002D01*
X177776496Y-110188629D01*
X178868699Y-109423860D02*
X178478627Y-109696992D01*
X177905050Y-108877840D01*
X179555210Y-108826896D02*
X179543516Y-108893216D01*
X179453808Y-109014163D01*
X179375793Y-109068789D01*
X179231458Y-109111721D01*
X179098817Y-109088333D01*
X179005184Y-109037632D01*
X178856924Y-108908916D01*
X178774984Y-108791894D01*
X178704739Y-108608552D01*
X178689120Y-108503225D01*
X178712508Y-108370584D01*
X178802217Y-108249637D01*
X178880231Y-108195011D01*
X179024566Y-108152078D01*
X179090886Y-108163773D01*
X179621369Y-107676061D02*
X180031066Y-108261169D01*
X180073998Y-108405504D01*
X180050610Y-108538145D01*
X179960902Y-108659092D01*
X179882887Y-108713718D01*
X180975090Y-107948949D02*
X180585018Y-108222081D01*
X180011441Y-107402929D01*
X181661601Y-107351985D02*
X181649907Y-107418305D01*
X181560199Y-107539252D01*
X181482184Y-107593878D01*
X181337849Y-107636810D01*
X181205208Y-107613422D01*
X181111575Y-107562721D01*
X180963315Y-107434005D01*
X180881375Y-107316984D01*
X180811130Y-107133641D01*
X180795511Y-107028314D01*
X180818899Y-106895673D01*
X180908608Y-106774726D01*
X180986622Y-106720100D01*
X181130957Y-106677168D01*
X181197277Y-106688862D01*
D12*
%TO.C,R1*%
X161805956Y-89708079D02*
X162194657Y-89435907D01*
X162405343Y-90564093D02*
X162794044Y-90291921D01*
%TO.C,kibuzzard-625A7373*%
G36*
X178826106Y-91765645D02*
G01*
X178922150Y-91838869D01*
X178969775Y-91918156D01*
X178998350Y-92025841D01*
X179007875Y-92161925D01*
X179007875Y-92439738D01*
X179005494Y-92494506D01*
X178990412Y-92536575D01*
X178949534Y-92568722D01*
X178868175Y-92579438D01*
X178787609Y-92568325D01*
X178745937Y-92534988D01*
X178732444Y-92492919D01*
X178730062Y-92438150D01*
X178730062Y-92160338D01*
X178705456Y-92056753D01*
X178631637Y-92022225D01*
X178556231Y-92058738D01*
X178536387Y-92161925D01*
X178536387Y-92439738D01*
X178534006Y-92495300D01*
X178518925Y-92536575D01*
X178476856Y-92568722D01*
X178395100Y-92579438D01*
X178314534Y-92568325D01*
X178272862Y-92534988D01*
X178259369Y-92492919D01*
X178256987Y-92438150D01*
X178256987Y-92160338D01*
X178232381Y-92056753D01*
X178158562Y-92022225D01*
X178087125Y-92056753D01*
X178063312Y-92160338D01*
X178063312Y-92441325D01*
X178060931Y-92496094D01*
X178045850Y-92538163D01*
X178002987Y-92569119D01*
X177922025Y-92579438D01*
X177841459Y-92568722D01*
X177799787Y-92536575D01*
X177786294Y-92495300D01*
X177783912Y-92439738D01*
X177783912Y-91880937D01*
X177786294Y-91826169D01*
X177801375Y-91785687D01*
X177841459Y-91753541D01*
X177914087Y-91742825D01*
X178029975Y-91771400D01*
X178056962Y-91853950D01*
X178139116Y-91769416D01*
X178236350Y-91741237D01*
X178335128Y-91756583D01*
X178415561Y-91802621D01*
X178477650Y-91879350D01*
X178519719Y-91829344D01*
X178598300Y-91772194D01*
X178709425Y-91741237D01*
X178826106Y-91765645D01*
G37*
G36*
X180903350Y-91414212D02*
G01*
X181052575Y-91414212D01*
X181108138Y-91416594D01*
X181149413Y-91431675D01*
X181181559Y-91474537D01*
X181192275Y-91558675D01*
X181182353Y-91635272D01*
X181152588Y-91674562D01*
X181113694Y-91689644D01*
X181062100Y-91692025D01*
X180784288Y-91692025D01*
X180768413Y-91812675D01*
X180823975Y-91809500D01*
X180921165Y-91822112D01*
X181011653Y-91859947D01*
X181095438Y-91923006D01*
X181162465Y-92004322D01*
X181202682Y-92096926D01*
X181216088Y-92200819D01*
X181203388Y-92305241D01*
X181165288Y-92399433D01*
X181101788Y-92483394D01*
X181019414Y-92549099D01*
X180924693Y-92588522D01*
X180817625Y-92601663D01*
X180722375Y-92593372D01*
X180633475Y-92568501D01*
X180550925Y-92527050D01*
X180511238Y-92496888D01*
X180498538Y-92485775D01*
X180438213Y-92390525D01*
X180496950Y-92287338D01*
X180589025Y-92234950D01*
X180695388Y-92285750D01*
X180794606Y-92319088D01*
X180899381Y-92288925D01*
X180933513Y-92205581D01*
X180896206Y-92121444D01*
X180811275Y-92090488D01*
X180735075Y-92119063D01*
X180648556Y-92155575D01*
X180548544Y-92125413D01*
X180474725Y-92076994D01*
X180457263Y-92038100D01*
X180465200Y-91963884D01*
X180489013Y-91782512D01*
X180513222Y-91603919D01*
X180522350Y-91538037D01*
X180533463Y-91504700D01*
X180556481Y-91461837D01*
X180597756Y-91427706D01*
X180662050Y-91412625D01*
X180903350Y-91414212D01*
G37*
G36*
X180296330Y-92292497D02*
G01*
X180347725Y-92317500D01*
X180374713Y-92428625D01*
X180374713Y-92434975D01*
X180372331Y-92491331D01*
X180355663Y-92534988D01*
X180313792Y-92569516D01*
X180235806Y-92581025D01*
X180156034Y-92573484D01*
X180108806Y-92550863D01*
X180077850Y-92436563D01*
X180077850Y-92430213D01*
X180080231Y-92374650D01*
X180095313Y-92331788D01*
X180137183Y-92296069D01*
X180215169Y-92284163D01*
X180296330Y-92292497D01*
G37*
G36*
X179658397Y-91413066D02*
G01*
X179761849Y-91457251D01*
X179849250Y-91530894D01*
X179915396Y-91623410D01*
X179955083Y-91724216D01*
X179968313Y-91833312D01*
X179958391Y-91921419D01*
X179928625Y-92004763D01*
X179884969Y-92077788D01*
X179833375Y-92134938D01*
X179722250Y-92222647D01*
X179623825Y-92276225D01*
X179584138Y-92292100D01*
X179584138Y-92300038D01*
X179874650Y-92300038D01*
X179967519Y-92315119D01*
X180004825Y-92361156D01*
X180014350Y-92442119D01*
X180004031Y-92522288D01*
X179969900Y-92563563D01*
X179871475Y-92582613D01*
X179250762Y-92582613D01*
X179152337Y-92539750D01*
X179111062Y-92439738D01*
X179125945Y-92357386D01*
X179170594Y-92281781D01*
X179236277Y-92214709D01*
X179314262Y-92157956D01*
X179398400Y-92106759D01*
X179482537Y-92056356D01*
X179560523Y-92002977D01*
X179626206Y-91942850D01*
X179670855Y-91877366D01*
X179685738Y-91807912D01*
X179674625Y-91767431D01*
X179650019Y-91724569D01*
X179607950Y-91693612D01*
X179528575Y-91679325D01*
X179440469Y-91716631D01*
X179398400Y-91790450D01*
X179392050Y-91826962D01*
X179392050Y-91836487D01*
X179389669Y-91888875D01*
X179374587Y-91928562D01*
X179331725Y-91957137D01*
X179250762Y-91966662D01*
X179162259Y-91951581D01*
X179119000Y-91906337D01*
X179111062Y-91825375D01*
X179124203Y-91719101D01*
X179163626Y-91620411D01*
X179229331Y-91529306D01*
X179316291Y-91456546D01*
X179419478Y-91412890D01*
X179538894Y-91398337D01*
X179658397Y-91413066D01*
G37*
%TO.C,kibuzzard-6296FC15*%
G36*
X171958578Y-89740234D02*
G01*
X168041422Y-89740234D01*
X168041422Y-88503969D01*
X168289469Y-88503969D01*
X168305454Y-88633284D01*
X168353410Y-88751354D01*
X168433336Y-88858180D01*
X168531562Y-88942516D01*
X168634419Y-88993117D01*
X168741906Y-89009984D01*
X168884285Y-88985180D01*
X168982016Y-88910766D01*
X168982016Y-88970297D01*
X168934391Y-89113172D01*
X168811359Y-89172703D01*
X168704203Y-89154348D01*
X168604984Y-89099281D01*
X168547437Y-89075469D01*
X168498820Y-89091344D01*
X168440281Y-89148891D01*
X168380750Y-89285813D01*
X168414980Y-89348816D01*
X168517672Y-89418766D01*
X168658066Y-89473832D01*
X168805406Y-89492188D01*
X168933288Y-89476643D01*
X169052351Y-89430010D01*
X169162594Y-89352289D01*
X169250788Y-89249212D01*
X169303705Y-89126511D01*
X169321344Y-88984188D01*
X169321344Y-88865125D01*
X169480094Y-88865125D01*
X169483070Y-88933586D01*
X169499938Y-88986172D01*
X169552027Y-89026355D01*
X169652734Y-89039750D01*
X169754434Y-89026355D01*
X169805531Y-88986172D01*
X169824383Y-88935570D01*
X169827359Y-88867109D01*
X169827359Y-88515875D01*
X169875977Y-88390859D01*
X170002977Y-88343234D01*
X170127992Y-88388875D01*
X170174625Y-88515875D01*
X170174625Y-88865125D01*
X170186531Y-88966328D01*
X170238125Y-89021395D01*
X170349250Y-89039750D01*
X170451445Y-89026355D01*
X170504031Y-88986172D01*
X170520898Y-88935570D01*
X170523875Y-88867109D01*
X170523875Y-88518852D01*
X170662781Y-88518852D01*
X170679097Y-88651364D01*
X170728045Y-88772411D01*
X170809625Y-88881992D01*
X170911049Y-88968533D01*
X171019528Y-89020457D01*
X171135063Y-89037766D01*
X171267520Y-89013953D01*
X171367234Y-88942516D01*
X171413619Y-89015441D01*
X171521023Y-89039750D01*
X171631900Y-89026355D01*
X171688703Y-88986172D01*
X171707555Y-88935570D01*
X171710531Y-88867109D01*
X171710531Y-87682437D01*
X171707555Y-87613977D01*
X171689695Y-87561391D01*
X171637109Y-87519719D01*
X171536898Y-87507812D01*
X171436688Y-87519719D01*
X171384102Y-87560398D01*
X171366242Y-87611992D01*
X171363266Y-87680453D01*
X171363266Y-88097172D01*
X171265535Y-88022758D01*
X171135063Y-87997953D01*
X171020520Y-88015372D01*
X170912372Y-88067627D01*
X170810617Y-88154719D01*
X170728486Y-88264852D01*
X170679207Y-88386229D01*
X170662781Y-88518852D01*
X170523875Y-88518852D01*
X170523875Y-88517859D01*
X170509213Y-88379725D01*
X170465226Y-88256363D01*
X170391914Y-88147773D01*
X170296554Y-88063437D01*
X170186421Y-88012836D01*
X170061516Y-87995969D01*
X169912687Y-88041609D01*
X169859109Y-88083281D01*
X169823391Y-88122969D01*
X169803547Y-88041609D01*
X169752449Y-88007379D01*
X169654719Y-87995969D01*
X169554012Y-88008371D01*
X169501922Y-88045578D01*
X169483070Y-88096180D01*
X169480094Y-88162656D01*
X169480094Y-88865125D01*
X169321344Y-88865125D01*
X169321344Y-88162656D01*
X169318367Y-88095187D01*
X169300508Y-88044586D01*
X169249906Y-88003906D01*
X169136797Y-87992000D01*
X169024680Y-88020773D01*
X168984000Y-88105109D01*
X168951258Y-88066414D01*
X168874859Y-88020773D01*
X168751828Y-87995969D01*
X168639821Y-88012946D01*
X168533988Y-88063878D01*
X168434328Y-88148766D01*
X168353851Y-88256142D01*
X168305564Y-88374543D01*
X168289469Y-88503969D01*
X168041422Y-88503969D01*
X168041422Y-87259766D01*
X171958578Y-87259766D01*
X171958578Y-89740234D01*
G37*
G36*
X171310680Y-88400781D02*
G01*
X171357313Y-88520836D01*
X171308695Y-88638906D01*
X171186656Y-88692484D01*
X171061641Y-88638906D01*
X171010047Y-88519844D01*
X171057672Y-88399789D01*
X171184672Y-88345219D01*
X171310680Y-88400781D01*
G37*
G36*
X168924469Y-88387883D02*
G01*
X168970109Y-88504961D01*
X168922484Y-88620055D01*
X168802430Y-88672641D01*
X168679398Y-88621047D01*
X168628797Y-88504961D01*
X168676422Y-88386891D01*
X168801437Y-88333312D01*
X168924469Y-88387883D01*
G37*
%TO.C,kibuzzard-625A7373*%
G36*
X160326106Y-107765645D02*
G01*
X160422150Y-107838869D01*
X160469775Y-107918156D01*
X160498350Y-108025841D01*
X160507875Y-108161925D01*
X160507875Y-108439738D01*
X160505494Y-108494506D01*
X160490412Y-108536575D01*
X160449534Y-108568722D01*
X160368175Y-108579438D01*
X160287609Y-108568325D01*
X160245937Y-108534988D01*
X160232444Y-108492919D01*
X160230062Y-108438150D01*
X160230062Y-108160338D01*
X160205456Y-108056753D01*
X160131637Y-108022225D01*
X160056231Y-108058738D01*
X160036387Y-108161925D01*
X160036387Y-108439738D01*
X160034006Y-108495300D01*
X160018925Y-108536575D01*
X159976856Y-108568722D01*
X159895100Y-108579438D01*
X159814534Y-108568325D01*
X159772862Y-108534988D01*
X159759369Y-108492919D01*
X159756987Y-108438150D01*
X159756987Y-108160338D01*
X159732381Y-108056753D01*
X159658562Y-108022225D01*
X159587125Y-108056753D01*
X159563312Y-108160338D01*
X159563312Y-108441325D01*
X159560931Y-108496094D01*
X159545850Y-108538163D01*
X159502987Y-108569119D01*
X159422025Y-108579438D01*
X159341459Y-108568722D01*
X159299787Y-108536575D01*
X159286294Y-108495300D01*
X159283912Y-108439738D01*
X159283912Y-107880937D01*
X159286294Y-107826169D01*
X159301375Y-107785687D01*
X159341459Y-107753541D01*
X159414087Y-107742825D01*
X159529975Y-107771400D01*
X159556962Y-107853950D01*
X159639116Y-107769416D01*
X159736350Y-107741237D01*
X159835128Y-107756583D01*
X159915561Y-107802621D01*
X159977650Y-107879350D01*
X160019719Y-107829344D01*
X160098300Y-107772194D01*
X160209425Y-107741237D01*
X160326106Y-107765645D01*
G37*
G36*
X161796330Y-108292497D02*
G01*
X161847725Y-108317500D01*
X161874713Y-108428625D01*
X161874713Y-108434975D01*
X161872331Y-108491331D01*
X161855663Y-108534988D01*
X161813792Y-108569516D01*
X161735806Y-108581025D01*
X161656034Y-108573484D01*
X161608806Y-108550863D01*
X161577850Y-108436563D01*
X161577850Y-108430213D01*
X161580231Y-108374650D01*
X161595313Y-108331788D01*
X161637183Y-108296069D01*
X161715169Y-108284163D01*
X161796330Y-108292497D01*
G37*
G36*
X162403350Y-107414212D02*
G01*
X162552575Y-107414212D01*
X162608138Y-107416594D01*
X162649413Y-107431675D01*
X162681559Y-107474537D01*
X162692275Y-107558675D01*
X162682353Y-107635272D01*
X162652588Y-107674562D01*
X162613694Y-107689644D01*
X162562100Y-107692025D01*
X162284288Y-107692025D01*
X162268413Y-107812675D01*
X162323975Y-107809500D01*
X162421165Y-107822112D01*
X162511653Y-107859947D01*
X162595438Y-107923006D01*
X162662465Y-108004322D01*
X162702682Y-108096926D01*
X162716088Y-108200819D01*
X162703388Y-108305241D01*
X162665288Y-108399433D01*
X162601788Y-108483394D01*
X162519414Y-108549099D01*
X162424693Y-108588522D01*
X162317625Y-108601663D01*
X162222375Y-108593372D01*
X162133475Y-108568501D01*
X162050925Y-108527050D01*
X162011238Y-108496888D01*
X161998538Y-108485775D01*
X161938213Y-108390525D01*
X161996950Y-108287338D01*
X162089025Y-108234950D01*
X162195388Y-108285750D01*
X162294606Y-108319088D01*
X162399381Y-108288925D01*
X162433513Y-108205581D01*
X162396206Y-108121444D01*
X162311275Y-108090488D01*
X162235075Y-108119063D01*
X162148556Y-108155575D01*
X162048544Y-108125413D01*
X161974725Y-108076994D01*
X161957263Y-108038100D01*
X161965200Y-107963884D01*
X161989013Y-107782512D01*
X162013222Y-107603919D01*
X162022350Y-107538037D01*
X162033463Y-107504700D01*
X162056481Y-107461837D01*
X162097756Y-107427706D01*
X162162050Y-107412625D01*
X162403350Y-107414212D01*
G37*
G36*
X161158397Y-107413066D02*
G01*
X161261849Y-107457251D01*
X161349250Y-107530894D01*
X161415396Y-107623410D01*
X161455083Y-107724216D01*
X161468313Y-107833312D01*
X161458391Y-107921419D01*
X161428625Y-108004763D01*
X161384969Y-108077788D01*
X161333375Y-108134938D01*
X161222250Y-108222647D01*
X161123825Y-108276225D01*
X161084138Y-108292100D01*
X161084138Y-108300038D01*
X161374650Y-108300038D01*
X161467519Y-108315119D01*
X161504825Y-108361156D01*
X161514350Y-108442119D01*
X161504031Y-108522288D01*
X161469900Y-108563563D01*
X161371475Y-108582613D01*
X160750762Y-108582613D01*
X160652337Y-108539750D01*
X160611062Y-108439738D01*
X160625945Y-108357386D01*
X160670594Y-108281781D01*
X160736277Y-108214709D01*
X160814262Y-108157956D01*
X160898400Y-108106759D01*
X160982537Y-108056356D01*
X161060523Y-108002977D01*
X161126206Y-107942850D01*
X161170855Y-107877366D01*
X161185738Y-107807912D01*
X161174625Y-107767431D01*
X161150019Y-107724569D01*
X161107950Y-107693612D01*
X161028575Y-107679325D01*
X160940469Y-107716631D01*
X160898400Y-107790450D01*
X160892050Y-107826962D01*
X160892050Y-107836487D01*
X160889669Y-107888875D01*
X160874587Y-107928562D01*
X160831725Y-107957137D01*
X160750762Y-107966662D01*
X160662259Y-107951581D01*
X160619000Y-107906337D01*
X160611062Y-107825375D01*
X160624203Y-107719101D01*
X160663626Y-107620411D01*
X160729331Y-107529306D01*
X160816291Y-107456546D01*
X160919478Y-107412890D01*
X161038894Y-107398337D01*
X161158397Y-107413066D01*
G37*
%TO.C,kibuzzard-6296FBFD*%
G36*
X171602172Y-109959766D02*
G01*
X171602172Y-112440234D01*
X168597828Y-112440234D01*
X168597828Y-111573063D01*
X168845875Y-111573063D01*
X168883578Y-111648469D01*
X169002971Y-111710205D01*
X169125672Y-111747247D01*
X169251680Y-111759594D01*
X169372175Y-111752759D01*
X169478339Y-111732253D01*
X169570172Y-111698078D01*
X169678320Y-111589930D01*
X169686587Y-111567109D01*
X169846000Y-111567109D01*
X169848977Y-111636563D01*
X169865844Y-111688156D01*
X169917934Y-111728340D01*
X170018641Y-111741734D01*
X170120340Y-111728836D01*
X170171438Y-111690141D01*
X170190289Y-111637555D01*
X170193266Y-111569094D01*
X170193266Y-111203969D01*
X170322250Y-111203969D01*
X170338235Y-111333284D01*
X170386191Y-111451354D01*
X170466117Y-111558180D01*
X170564344Y-111642516D01*
X170667201Y-111693117D01*
X170774688Y-111709984D01*
X170917066Y-111685180D01*
X171014797Y-111610766D01*
X171014797Y-111670297D01*
X170967172Y-111813172D01*
X170844141Y-111872703D01*
X170736984Y-111854348D01*
X170637766Y-111799281D01*
X170580219Y-111775469D01*
X170531602Y-111791344D01*
X170473063Y-111848891D01*
X170413531Y-111985813D01*
X170447762Y-112048816D01*
X170550453Y-112118766D01*
X170690848Y-112173832D01*
X170838188Y-112192188D01*
X170966069Y-112176643D01*
X171085132Y-112130010D01*
X171195375Y-112052289D01*
X171283569Y-111949212D01*
X171336486Y-111826511D01*
X171354125Y-111684188D01*
X171354125Y-110862656D01*
X171351148Y-110795187D01*
X171333289Y-110744586D01*
X171282688Y-110703906D01*
X171169578Y-110692000D01*
X171057461Y-110720773D01*
X171016781Y-110805109D01*
X170984039Y-110766414D01*
X170907641Y-110720773D01*
X170784609Y-110695969D01*
X170672602Y-110712946D01*
X170566769Y-110763878D01*
X170467109Y-110848766D01*
X170386632Y-110956142D01*
X170338345Y-111074543D01*
X170322250Y-111203969D01*
X170193266Y-111203969D01*
X170193266Y-110874562D01*
X170191281Y-110817016D01*
X170155563Y-110731687D01*
X170020625Y-110697953D01*
X169918430Y-110710852D01*
X169865844Y-110749547D01*
X169848977Y-110802133D01*
X169846000Y-110870594D01*
X169846000Y-111567109D01*
X169686587Y-111567109D01*
X169707342Y-111509811D01*
X169717016Y-111414313D01*
X169707342Y-111319807D01*
X169678320Y-111242664D01*
X169582078Y-111146422D01*
X169457062Y-111096812D01*
X169328078Y-111071016D01*
X169226875Y-111042738D01*
X169193141Y-110993625D01*
X169310219Y-110949969D01*
X169450117Y-110979734D01*
X169538422Y-111009500D01*
X169627719Y-110940047D01*
X169671375Y-110822969D01*
X169601922Y-110743594D01*
X169455078Y-110692992D01*
X169312203Y-110676125D01*
X169157184Y-110688666D01*
X169036613Y-110726290D01*
X168950491Y-110788996D01*
X168898818Y-110876785D01*
X168881594Y-110989656D01*
X168891020Y-111087635D01*
X168919297Y-111171227D01*
X169014547Y-111283344D01*
X169138074Y-111344363D01*
X169262594Y-111376609D01*
X169362309Y-111399430D01*
X169395547Y-111432172D01*
X169365285Y-111467891D01*
X169274500Y-111479797D01*
X169123687Y-111431180D01*
X168991727Y-111382563D01*
X168921281Y-111416297D01*
X168864727Y-111508074D01*
X168845875Y-111573063D01*
X168597828Y-111573063D01*
X168597828Y-110380453D01*
X169846000Y-110380453D01*
X169848977Y-110448914D01*
X169866836Y-110501500D01*
X169919422Y-110543172D01*
X170019633Y-110555078D01*
X170119844Y-110543172D01*
X170172430Y-110502492D01*
X170190289Y-110450898D01*
X170193266Y-110382437D01*
X170190289Y-110313977D01*
X170171438Y-110261391D01*
X170120836Y-110221207D01*
X170020625Y-110207812D01*
X169918430Y-110221207D01*
X169865844Y-110261391D01*
X169848977Y-110311992D01*
X169846000Y-110380453D01*
X168597828Y-110380453D01*
X168597828Y-109959766D01*
X171602172Y-109959766D01*
G37*
G36*
X170957250Y-111087883D02*
G01*
X171002891Y-111204961D01*
X170955266Y-111320055D01*
X170835211Y-111372641D01*
X170712180Y-111321047D01*
X170661578Y-111204961D01*
X170709203Y-111086891D01*
X170834219Y-111033312D01*
X170957250Y-111087883D01*
G37*
%TO.C,kibuzzard-6296FC21*%
G36*
X164189781Y-98519656D02*
G01*
X164189781Y-101480344D01*
X162610219Y-101480344D01*
X162610219Y-100765969D01*
X162858266Y-100765969D01*
X162870807Y-100920988D01*
X162908431Y-101041559D01*
X162971137Y-101127681D01*
X163058926Y-101179354D01*
X163171797Y-101196578D01*
X163269775Y-101187152D01*
X163353367Y-101158875D01*
X163465484Y-101063625D01*
X163526504Y-100940098D01*
X163558750Y-100815578D01*
X163581570Y-100715863D01*
X163614313Y-100682625D01*
X163650031Y-100712887D01*
X163661938Y-100803672D01*
X163613320Y-100954484D01*
X163564703Y-101086445D01*
X163598438Y-101156891D01*
X163690215Y-101213445D01*
X163755203Y-101232297D01*
X163830609Y-101194594D01*
X163892345Y-101075201D01*
X163929387Y-100952500D01*
X163941734Y-100826492D01*
X163934899Y-100705997D01*
X163914394Y-100599832D01*
X163880219Y-100508000D01*
X163772070Y-100399852D01*
X163691951Y-100370830D01*
X163596453Y-100361156D01*
X163501947Y-100370830D01*
X163424805Y-100399852D01*
X163328562Y-100496094D01*
X163278953Y-100621109D01*
X163253156Y-100750094D01*
X163224879Y-100851297D01*
X163175766Y-100885031D01*
X163132109Y-100767953D01*
X163161875Y-100628055D01*
X163191641Y-100539750D01*
X163122187Y-100450453D01*
X163005109Y-100406797D01*
X162925734Y-100476250D01*
X162875133Y-100623094D01*
X162858266Y-100765969D01*
X162610219Y-100765969D01*
X162610219Y-100065484D01*
X162866203Y-100065484D01*
X162892000Y-100168672D01*
X162946074Y-100253504D01*
X163017016Y-100281781D01*
X163094406Y-100261938D01*
X163824656Y-99962297D01*
X163895102Y-99906734D01*
X163929828Y-99803547D01*
X163882203Y-99694406D01*
X163840531Y-99662656D01*
X163807789Y-99645789D01*
X163772070Y-99631898D01*
X163637133Y-99582289D01*
X163544115Y-99548307D01*
X163481359Y-99523750D01*
X163635700Y-99465762D01*
X163738887Y-99426736D01*
X163790922Y-99406672D01*
X163824656Y-99390797D01*
X163895102Y-99334242D01*
X163929828Y-99245937D01*
X163915938Y-99170531D01*
X163867320Y-99111000D01*
X163792906Y-99071312D01*
X163261094Y-98853031D01*
X163131117Y-98799453D01*
X163022969Y-98767703D01*
X162948059Y-98799453D01*
X162886047Y-98894703D01*
X162866203Y-98974078D01*
X162897953Y-99057422D01*
X162993203Y-99116953D01*
X163322609Y-99238000D01*
X163269693Y-99258946D01*
X163163859Y-99297972D01*
X163005109Y-99355078D01*
X162971375Y-99370953D01*
X162907875Y-99429492D01*
X162876125Y-99531687D01*
X162933672Y-99648766D01*
X163003125Y-99692422D01*
X163324594Y-99809500D01*
X163152615Y-99872780D01*
X163028260Y-99919743D01*
X162951531Y-99950391D01*
X162916805Y-99966266D01*
X162883070Y-100000992D01*
X162866203Y-100065484D01*
X162610219Y-100065484D01*
X162610219Y-98519656D01*
X164189781Y-98519656D01*
G37*
%TO.C,kibuzzard-625A7081*%
G36*
X165845543Y-96500000D02*
G01*
X164972418Y-97809688D01*
X157154457Y-97809688D01*
X157545617Y-97222948D01*
X158573285Y-97222948D01*
X158589001Y-97356536D01*
X158658415Y-97431188D01*
X158803790Y-97456072D01*
X159746765Y-97456072D01*
X159882972Y-97429878D01*
X159927502Y-97372252D01*
X159940599Y-97260928D01*
X159927502Y-97149605D01*
X159875114Y-97088050D01*
X159749384Y-97068404D01*
X159036914Y-97068404D01*
X159036914Y-96882429D01*
X160071567Y-96882429D01*
X160084664Y-97002920D01*
X160142945Y-97069714D01*
X160260162Y-97091979D01*
X160883574Y-97091979D01*
X161014542Y-97068404D01*
X161060382Y-97004230D01*
X161074788Y-96885048D01*
X161059072Y-96764557D01*
X161002755Y-96699727D01*
X160886193Y-96678118D01*
X160262782Y-96678118D01*
X160137052Y-96701692D01*
X160087284Y-96764557D01*
X160071567Y-96882429D01*
X159036914Y-96882429D01*
X159036914Y-96486903D01*
X161205757Y-96486903D01*
X161223110Y-96683684D01*
X161275170Y-96865403D01*
X161354079Y-97023875D01*
X161451978Y-97150915D01*
X161566248Y-97253725D01*
X161694270Y-97339510D01*
X161827204Y-97405649D01*
X161956208Y-97449523D01*
X162082593Y-97474080D01*
X162207668Y-97482266D01*
X162334380Y-97471788D01*
X162465676Y-97440356D01*
X162642484Y-97372252D01*
X162732853Y-97317245D01*
X162815363Y-97251761D01*
X162827487Y-97220328D01*
X163023603Y-97220328D01*
X163039319Y-97356536D01*
X163108733Y-97429223D01*
X163254108Y-97453453D01*
X163389006Y-97435772D01*
X163458419Y-97382729D01*
X163483303Y-97313316D01*
X163487233Y-97222948D01*
X163487233Y-96688595D01*
X164181367Y-96688595D01*
X164181367Y-97220328D01*
X164197083Y-97356536D01*
X164266497Y-97429223D01*
X164411872Y-97453453D01*
X164546770Y-97435772D01*
X164616183Y-97382729D01*
X164641067Y-97313316D01*
X164644996Y-97222948D01*
X164644996Y-95769194D01*
X164631899Y-95632987D01*
X164595228Y-95580599D01*
X164527124Y-95549167D01*
X164406633Y-95536070D01*
X164280903Y-95551786D01*
X164210180Y-95606793D01*
X164185296Y-95676207D01*
X164181367Y-95766575D01*
X164181367Y-96303547D01*
X163487233Y-96303547D01*
X163487233Y-95769194D01*
X163474136Y-95632987D01*
X163402758Y-95560299D01*
X163256728Y-95536070D01*
X163121830Y-95553751D01*
X163052416Y-95606793D01*
X163027532Y-95676207D01*
X163023603Y-95766575D01*
X163023603Y-97220328D01*
X162827487Y-97220328D01*
X162850724Y-97160083D01*
X162793098Y-97013397D01*
X162702075Y-96903384D01*
X162617600Y-96866713D01*
X162491870Y-96919100D01*
X162444721Y-96953152D01*
X162341256Y-96995062D01*
X162188023Y-97016017D01*
X162018418Y-96987204D01*
X161855362Y-96900764D01*
X161721774Y-96735744D01*
X161682483Y-96624093D01*
X161669386Y-96498690D01*
X161682483Y-96373288D01*
X161721774Y-96261637D01*
X161852743Y-96099236D01*
X162019073Y-96010832D01*
X162188023Y-95981364D01*
X162353043Y-96003628D01*
X162481393Y-96070422D01*
X162614981Y-96128049D01*
X162701420Y-96092687D01*
X162798337Y-95986603D01*
X162853344Y-95841227D01*
X162785240Y-95716807D01*
X162711898Y-95669658D01*
X162649033Y-95632987D01*
X162456508Y-95555715D01*
X162330451Y-95527230D01*
X162206358Y-95517734D01*
X162033770Y-95533451D01*
X161861765Y-95580599D01*
X161690341Y-95659181D01*
X161561664Y-95741364D01*
X161448049Y-95841227D01*
X161351460Y-95964338D01*
X161273861Y-96116262D01*
X161222783Y-96292087D01*
X161205757Y-96486903D01*
X159036914Y-96486903D01*
X159036914Y-95769194D01*
X159023817Y-95632987D01*
X158952440Y-95560299D01*
X158806409Y-95536070D01*
X158671512Y-95553751D01*
X158602098Y-95606793D01*
X158577214Y-95676207D01*
X158573285Y-95766575D01*
X158573285Y-97222948D01*
X157545617Y-97222948D01*
X158027582Y-96500000D01*
X157154457Y-95190312D01*
X164972418Y-95190312D01*
X165845543Y-96500000D01*
G37*
%TD*%
M02*
